HIERARCHY
ROOT Hips
{
	OFFSET -0.179506 -22.333345 2.821913
	CHANNELS 6 Xposition Yposition Zposition Zrotation Yrotation Xrotation 
	JOINT LeftUpLeg
	{
		OFFSET 6.951974 -9.140623 -0.681533
		CHANNELS 3 Zrotation Yrotation Xrotation
		JOINT LeftLeg
		{
			OFFSET 3.427654 -37.519855 -0.449580
			CHANNELS 3 Zrotation Yrotation Xrotation
			JOINT LeftFoot
			{
				OFFSET -1.359570 -39.796059 -4.369333
				CHANNELS 3 Zrotation Yrotation Xrotation
				JOINT LeftToe
				{
					OFFSET 2.635814 -5.579078 11.928840
					CHANNELS 3 Zrotation Yrotation Xrotation
					End Site
					{
						OFFSET 0.000000 0.000000 0.000000
					}
				}
			}
		}
	}
	JOINT RightUpLeg
	{
		OFFSET -6.767048 -9.052170 -0.431982
		CHANNELS 3 Zrotation Yrotation Xrotation
		JOINT RightLeg
		{
			OFFSET -3.829005 -38.256897 -0.885003
			CHANNELS 3 Zrotation Yrotation Xrotation
			JOINT RightFoot
			{
				OFFSET 1.577377 -39.841461 -4.231180
				CHANNELS 3 Zrotation Yrotation Xrotation
				JOINT RightToe
				{
					OFFSET -2.537174 -4.814398 12.334795
					CHANNELS 3 Zrotation Yrotation Xrotation
					End Site
					{
						OFFSET 0.000000 0.000000 0.000000
					}
				}
			}
		}
	}
	JOINT Spine
	{
		OFFSET -0.253288 10.896323 -2.669631
		CHANNELS 3 Zrotation Yrotation Xrotation
		JOINT Spine1
		{
			OFFSET 0.548704 13.518043 0.109247
			CHANNELS 3 Zrotation Yrotation Xrotation
			JOINT Spine2
			{
				OFFSET 0.145701 5.292222 2.542457
				CHANNELS 3 Zrotation Yrotation Xrotation
				JOINT Neck
				{
					OFFSET -0.277840 21.387037 -4.285703
					CHANNELS 3 Zrotation Yrotation Xrotation
					JOINT Head
					{
						OFFSET 0.515184 6.496960 5.134897
						CHANNELS 3 Zrotation Yrotation Xrotation
						End Site
						{
							OFFSET 0.000000 0.000000 0.000000
						}
					}
				}
				JOINT LeftShoulder
				{
					OFFSET 7.884473 12.174932 -3.408961
					CHANNELS 3 Zrotation Yrotation Xrotation
					JOINT LeftArm
					{
						OFFSET 9.097692 3.046888 -0.886815
						CHANNELS 3 Zrotation Yrotation Xrotation
						JOINT LeftForeArm
						{
							OFFSET 25.961220 -1.277207 -2.745643
							CHANNELS 3 Zrotation Yrotation Xrotation
							JOINT LeftHand
							{
								OFFSET 24.923361 0.898606 -0.117091
								CHANNELS 3 Zrotation Yrotation Xrotation
								End Site
								{
									OFFSET 0.000000 0.000000 0.000000
								}
							}
						}
					}
				}
				JOINT RightShoulder
				{
					OFFSET -8.175920 11.883285 -3.861528
					CHANNELS 3 Zrotation Yrotation Xrotation
					JOINT RightArm
					{
						OFFSET -9.601238 3.255117 -0.914307
						CHANNELS 3 Zrotation Yrotation Xrotation
						JOINT RightForeArm
						{
							OFFSET -25.374195 -1.332924 -2.140099
							CHANNELS 3 Zrotation Yrotation Xrotation
							JOINT RightHand
							{
								OFFSET -25.529810 0.777228 -0.555919
								CHANNELS 3 Zrotation Yrotation Xrotation
								End Site
								{
									OFFSET 0.000000 0.000000 0.000000
								}
							}
						}
					}
				}
			}
		}
	}
}
MOTION
Frames: 15
Frame Time: 0.033333
-32.512569 -344.683258 85.393501 -179.407345 1.110657 102.202867 4.005971 -6.592576 -34.727725 -12.630399 8.209442 52.683244 9.312181 18.712121 -31.023135 nan nan nan -4.867612 -3.478836 -18.860299 2.036013 -13.383952 77.305193 0.612681 -7.158860 -10.729225 nan nan nan -2.011682 5.853722 12.407481 2.956216 -0.696947 8.041254 0.367393 -0.335286 -3.812051 1.137952 0.153435 -9.611124 1.201386 -0.762602 -15.778628 -24.060544 6.774757 2.505030 -61.446349 14.867891 13.609127 27.667722 -68.616639 -8.209342 -1.843344 -16.882402 -4.349478 25.152977 2.816777 2.622907 50.465841 -7.111196 12.084680 -6.559726 72.086491 6.446335 -4.601823 20.657291 -21.669481 
-32.761162 -342.028290 85.224976 -176.692708 0.195381 101.564755 2.394284 -8.590725 -31.926619 -12.873064 6.520235 52.457978 9.585532 19.636906 -32.062774 nan nan nan -2.756563 -0.083554 -20.210847 3.790320 -11.601632 81.051896 -0.011135 -5.941211 -12.484665 nan nan nan -2.153317 4.344492 12.537859 3.191717 -1.775412 9.783241 0.426808 -1.127655 -4.664002 0.395333 -0.152501 -9.731331 1.999207 -0.001855 -16.130831 -25.131597 5.176029 2.709992 -61.189719 13.037997 13.289668 32.067195 -67.999873 -12.223214 -3.748791 -16.766435 -0.214986 25.848916 2.763181 2.313624 51.307869 -7.906201 11.936715 -10.370536 69.262367 3.136389 -1.818399 21.753656 -19.146021 
-32.784016 -339.368622 85.072281 -175.390169 0.031211 101.162794 1.808014 -9.142104 -28.996706 -12.532132 5.692349 51.835678 9.198345 19.195507 -33.513107 nan nan nan -2.566354 0.923560 -22.911847 4.092164 -12.443932 84.060128 -0.156884 -4.025001 -13.774406 nan nan nan -2.267095 3.300200 12.523579 3.392786 -2.249007 11.502257 0.693090 -1.741243 -5.881999 -0.231405 0.766852 -9.377724 2.613664 -0.023131 -16.585506 -25.867285 3.955731 2.705984 -60.856261 11.852166 13.041992 33.421756 -68.406519 -15.299558 -13.779934 -18.952738 4.328695 26.819035 3.458030 2.870259 50.463681 -8.873924 11.299377 -8.430151 69.125225 3.024092 11.110505 26.989876 -14.432414 
-32.571850 -336.782959 84.840118 -173.764814 -0.361163 100.823969 1.104952 -9.053701 -26.445408 -13.517946 3.514760 51.390719 8.956045 20.125611 -34.508495 nan nan nan -0.723452 3.159291 -25.630458 5.539497 -10.952294 87.213292 -0.314180 -3.809184 -14.624654 nan nan nan -3.157371 1.974383 12.753053 3.894478 -2.505712 12.098813 0.861525 -2.014022 -5.827598 -0.312623 0.859565 -10.213700 2.848100 0.185465 -16.307102 -26.058951 2.608969 2.756667 -60.165188 9.796755 13.667933 36.889811 -67.551317 -16.409627 7.391199 -21.153704 1.973107 27.102515 3.190738 3.014964 51.344049 -9.879069 12.046275 -11.091893 66.037205 3.258612 -13.601696 25.905539 -19.566486 
-32.462761 -334.309204 84.786064 -173.324157 -0.142274 100.520015 0.942107 -8.267606 -23.523235 -13.803342 1.976872 50.249387 8.456877 20.336626 -35.493860 nan nan nan -1.297843 2.944053 -29.596135 5.031574 -12.005279 88.903638 -0.545441 -4.182438 -15.198924 nan nan nan -3.205430 0.967012 13.477114 4.061098 -2.249228 12.354311 0.947263 -2.180441 -6.163498 -0.511083 1.498856 -10.568593 2.873954 0.194986 -16.204428 -26.117324 1.843595 2.566618 -59.750052 7.582150 14.329103 38.113227 -67.360300 -17.622617 9.773131 -21.390854 2.687971 27.357654 3.186202 3.342169 51.518621 -10.595313 12.190325 -10.979541 64.029817 3.814078 -15.453165 25.576534 -20.002027 
-32.437000 -331.710938 84.758202 -172.640110 -0.044016 100.268227 0.729148 -8.184094 -20.338419 -13.437589 0.839776 48.624198 7.850716 19.897027 -36.447228 nan nan nan -2.358899 2.790125 -32.862056 4.094167 -13.726033 89.889389 -0.200545 -2.913410 -11.496108 nan nan nan -3.367613 0.060652 13.907191 4.589562 -2.181674 12.549275 1.040844 -2.360507 -6.527978 -1.062503 2.160897 -10.066386 3.224136 -0.086367 -16.744702 -26.228000 1.127313 2.832925 -59.255695 6.424505 16.357252 49.171363 -72.765789 -35.949429 13.041957 -29.987034 -15.975604 27.537911 3.292763 3.205147 51.397782 -12.206211 12.627683 -11.161696 62.286975 3.139980 -16.218904 27.054974 -21.464354 
-32.470993 -328.921783 84.710388 -171.972809 0.018735 99.697284 0.307648 -7.475237 -16.557926 -13.642847 -1.279795 46.861574 6.973651 19.878466 -36.994451 nan nan nan -3.590947 1.438699 -35.118763 2.440637 -15.337501 90.503431 -0.317919 -3.993868 -11.506350 nan nan nan -3.271631 -0.850613 14.064413 4.824008 -2.167617 12.978496 1.149378 -2.651660 -6.499727 -1.554138 2.476802 -9.809372 3.238646 0.001696 -16.898905 -26.145122 0.277918 2.908419 -58.901104 4.426679 16.809959 49.552927 -73.284448 -36.809943 15.040752 -30.791439 -16.297204 27.516270 3.191695 3.174852 51.079888 -13.804406 12.415953 -9.567229 61.606234 4.496579 -17.017417 27.685598 -21.414135 
-32.975075 -325.894501 84.615471 -172.437781 -1.350853 97.052805 -2.635426 -6.270382 -9.657356 -13.350484 -3.676290 44.069684 5.782777 19.818932 -37.079981 nan nan nan -6.395858 0.073966 -35.609199 -1.220848 -14.016766 89.064362 -1.134893 -8.998126 -16.766143 nan nan nan -3.756602 -1.502592 16.541432 3.799341 -1.933597 12.672377 0.815471 -2.931186 -5.521193 -1.712650 2.506548 -10.657744 3.438202 0.581891 -16.345901 -24.643676 0.174154 2.494285 -59.453196 2.149560 17.280957 50.122708 -73.813926 -37.337828 17.402822 -31.182063 -17.883189 26.945287 2.348736 2.777189 51.508284 -14.264478 13.051958 -8.217143 60.759099 5.834178 -17.429374 27.968041 -21.187266 
-32.905411 -323.101501 84.628113 -172.246636 -0.931129 96.813004 -2.129044 -5.194341 -6.432071 -12.928624 -5.622170 42.227306 5.380344 19.383425 -37.088562 nan nan nan -6.537713 0.247596 -38.702090 -0.858799 -14.351038 88.080978 -1.134086 -8.835286 -17.162847 nan nan nan -3.519573 -2.561690 16.844368 3.942341 -1.570772 12.293605 0.888275 -3.167469 -5.383581 -2.117653 3.305160 -10.424382 3.355038 0.677357 -16.032531 -24.221631 0.244205 2.183310 -59.470988 0.905532 17.467598 53.422381 -74.376891 -40.774421 16.560683 -31.271225 -17.199653 26.603156 1.513718 2.879684 51.222770 -15.249411 12.895940 -6.337722 60.511219 7.672265 -15.610053 27.906596 -20.867645 
-32.213123 -320.498352 84.590973 -171.843123 0.045669 97.673971 0.145049 -4.106865 -5.189770 -13.236908 -7.031956 41.332803 4.217932 18.322512 -37.230736 nan nan nan -5.776059 1.396351 -43.134851 -1.254992 -15.420678 86.824941 -1.220811 -9.339054 -17.027558 nan nan nan -3.976518 -3.608941 16.248483 4.664009 -0.934130 11.445427 1.441542 -3.467277 -4.820406 -2.071041 4.767396 -10.649555 3.278628 0.355951 -14.968951 -23.174951 0.700686 1.807434 -59.645092 -0.186400 17.682709 57.613053 -75.260308 -45.125791 14.986159 -31.566972 -15.967452 26.396485 0.566736 2.712425 50.905445 -16.174408 13.161475 -3.946528 60.063223 9.896033 -14.306876 27.966939 -22.116195 
-32.159767 -317.446594 84.744507 -171.499795 0.294228 96.943304 0.647145 -3.293200 -1.199605 -13.074654 -9.051180 39.317003 3.302550 17.915329 -36.416499 nan nan nan -6.141900 1.092376 -44.811520 -1.413534 -16.058944 84.749143 -1.316447 -9.641244 -16.931241 nan nan nan -3.912164 -4.463594 16.379836 4.860091 -0.759845 11.650973 1.563182 -3.785379 -4.666405 -2.311977 5.397108 -10.143999 3.097900 0.578180 -14.888399 -22.990770 0.795874 1.701308 -59.481864 -1.221842 18.017313 61.476939 -76.242292 -49.396168 16.455333 -31.677024 -16.379003 26.129254 -0.220089 2.753604 50.400622 -17.270001 13.031015 -1.835721 60.142507 11.870260 -14.500753 28.089574 -21.779273 
-32.213737 -314.529999 84.997200 -170.806384 0.404052 96.559370 0.965701 -3.012710 2.033448 -12.919330 -11.060881 37.708379 2.433435 17.579347 -35.060981 nan nan nan -6.845433 0.248329 -46.550567 -1.379119 -16.838965 82.019614 -1.490126 -10.203153 -16.355642 nan nan nan -3.760138 -5.400274 16.617889 5.100133 -0.857129 11.004683 1.679064 -4.036924 -4.154801 -2.823842 5.280807 -9.808638 3.180506 1.353169 -14.749157 -22.825907 0.880654 1.639028 -59.924288 -2.189010 19.043209 63.140530 -77.799105 -52.548315 19.404798 -31.106528 -20.785219 25.570490 -1.258465 2.433967 49.678277 -18.416759 13.067367 1.309645 60.309358 14.547065 -14.897869 27.637458 -21.749307 
-32.173286 -311.581726 85.335800 -170.149106 0.651489 96.383382 1.698793 -2.612533 4.889965 -12.525348 -12.763750 36.123391 1.605628 16.834227 -33.599603 nan nan nan -7.185546 -0.317222 -48.033866 -1.104237 -17.686879 78.658557 -1.631096 -10.104020 -15.670360 nan nan nan -3.568970 -6.363616 16.397030 5.382313 -0.943604 11.142609 1.878125 -4.421017 -4.292166 -3.186822 6.001784 -9.253540 2.958843 1.681612 -14.920157 -22.902739 1.177970 1.557195 -59.518509 -2.797664 19.154032 69.968254 -78.477539 -59.631484 19.338520 -31.592433 -19.632935 25.196384 -2.090843 2.449172 48.954099 -19.486376 13.068418 3.300214 60.501698 16.318107 -14.006495 27.613006 -21.242660 
-32.369152 -308.680359 85.773552 -169.109964 0.687053 96.131304 1.960736 -2.975075 7.563297 -11.839770 -14.209340 34.876983 0.752564 15.980489 -31.702013 nan nan nan -8.093830 -1.252576 -48.699801 0.243571 -18.779993 74.394206 -1.564033 -8.748262 -15.224692 nan nan nan -2.964011 -7.500738 16.424620 5.497444 -1.257990 10.862667 1.796722 -4.836695 -4.252923 -3.674846 6.330126 -9.172788 2.784159 2.124595 -14.677823 -22.674458 1.438639 1.633356 -59.815370 -3.375874 19.908650 76.322340 -79.195425 -66.718892 20.841685 -32.227892 -21.846599 24.689460 -3.004646 2.351654 48.210902 -20.432268 13.198581 5.446057 60.654198 18.039484 -13.369272 27.878835 -20.406026 
-32.293377 -305.602875 86.145691 -169.038837 0.937185 96.141458 2.760423 -2.749999 10.217663 -11.039562 -14.782512 33.044382 -1.852767 14.302777 -29.379091 nan nan nan -8.821219 -0.928737 -49.286481 -0.156532 -20.933530 69.400899 0.575244 -8.247875 -14.224558 nan nan nan -2.723236 -8.121692 15.343608 5.562285 -1.028014 12.085512 1.960593 -5.402719 -4.919460 -3.487601 8.643847 -8.960064 2.472485 0.924915 -14.784398 -22.247151 1.872767 1.350539 -60.113785 -3.514775 19.454123 89.151702 -78.216455 -77.781228 16.242275 -36.165993 -14.981167 24.654690 -3.283449 2.469589 47.527291 -21.739079 12.893783 6.018945 60.851064 18.857784 -10.416659 29.487827 -18.259977 
